<svg width="142" height="241" viewBox="0 0 142 241" fill="none" xmlns="http://www.w3.org/2000/svg">
<path fill-rule="evenodd" clip-rule="evenodd" d="M141.276 57.464C141.276 51.1164 136.13 45.9707 129.783 45.9707H11.6173C5.26975 45.9707 0.124023 51.1164 0.124023 57.464V175.629C0.124023 181.977 5.26977 187.123 11.6173 187.123H129.783C136.13 187.123 141.276 181.977 141.276 175.629V57.464ZM120.804 77.9356C120.804 71.5881 115.658 66.4423 109.31 66.4423H32.0899C25.7423 66.4423 20.5966 71.588 20.5966 77.9356V155.156C20.5966 161.504 25.7423 166.649 32.0898 166.649H109.31C115.658 166.649 120.804 161.504 120.804 155.156V77.9356Z" fill="white"/>
<rect x="54.7168" y="100.566" width="31.9661" height="31.9661" rx="6.46498" fill="white"/>
<path d="M19.5195 230.492V205.351H40.4588V211.636H27.888V214.761H38.3756V221.046H27.888V224.207H40.4588V230.492H19.5195ZM43.686 230.492V205.387H52.0904V216.233L59.3456 205.351H68.8994L60.5308 217.921L68.8994 230.492H59.3456L52.0904 219.609V230.492H43.686ZM90.3483 205.351L98.7168 230.492H89.9173L89.2349 228.409H79.8247L79.1423 230.492H70.3428L78.7113 205.351H90.3483ZM81.9438 222.124H87.1517L84.5298 214.294L81.9438 222.124ZM121.334 205.351V213.719H112.966V230.492H104.561V213.719H96.1929V205.351H121.334Z" fill="white"/>
<path d="M9.82122 3.85842H18.1898V29H9.82122V3.85842ZM46.2218 3.85842V12.227H37.8532V29H29.4488V12.227H21.0802V3.85842H46.2218ZM57.8242 3.85842V12.227H66.2287V3.85842H74.5973V29H66.2287V20.6314H57.8242V29H49.4557V3.85842H57.8242ZM86.1997 3.85842V17.5426C86.1997 18.1173 86.2955 18.68 86.4871 19.2307C86.7026 19.7575 86.9899 20.2244 87.3491 20.6314C87.7082 21.0385 88.1392 21.3617 88.642 21.6012C89.1688 21.8406 89.7435 21.9604 90.366 21.9604C91.0125 21.9604 91.5872 21.8406 92.09 21.6012C92.6168 21.3617 93.0598 21.0385 93.4189 20.6314C93.7781 20.2244 94.0535 19.7575 94.245 19.2307C94.4605 18.68 94.5683 18.1173 94.5683 17.5426V3.85842H102.937V17.5426C102.937 19.2666 102.602 20.8948 101.931 22.4273C101.285 23.9597 100.387 25.2886 99.2374 26.414C98.112 27.5394 96.7831 28.4253 95.2507 29.0718C93.7183 29.7423 92.09 30.0775 90.366 30.0775C88.642 30.0775 87.0138 29.7423 85.4814 29.0718C83.949 28.4253 82.62 27.5394 81.4947 26.414C80.3693 25.2886 79.4714 23.9597 78.8009 22.4273C78.1544 20.8948 77.8312 19.2666 77.8312 17.5426V3.85842H86.1997ZM105.821 29V3.85842H123.097C124.318 3.85842 125.419 4.06194 126.401 4.469C127.383 4.87605 128.209 5.4148 128.879 6.08524C129.574 6.75569 130.1 7.53388 130.46 8.41982C130.819 9.30576 130.998 10.2396 130.998 11.2213C130.998 12.2988 130.795 13.2925 130.388 14.2024C129.981 15.0883 129.466 15.8186 128.843 16.3933C129.466 16.968 129.957 17.7102 130.316 18.6201C130.699 19.53 130.891 20.5117 130.891 21.5653C130.891 22.547 130.711 23.4928 130.352 24.4027C130.017 25.2886 129.514 26.0788 128.843 26.7732C128.173 27.4436 127.347 27.9824 126.365 28.3894C125.407 28.7965 124.318 29 123.097 29H105.821ZM114.261 13.2686H120.978C121.409 13.2686 121.78 13.1249 122.091 12.8376C122.402 12.5263 122.558 12.1432 122.558 11.6882C122.558 11.2572 122.402 10.8981 122.091 10.6107C121.78 10.2995 121.409 10.1438 120.978 10.1438H114.261V13.2686ZM114.261 22.7146H120.978C121.409 22.7146 121.78 22.559 122.091 22.2477C122.402 21.9364 122.558 21.5533 122.558 21.0984C122.558 20.6674 122.402 20.3082 122.091 20.0209C121.78 19.7096 121.409 19.5539 120.978 19.5539H114.261V22.7146Z" fill="white"/>
</svg>
